<?xml version="1.0" encoding="UTF-8"?><svg id="_图层_2" xmlns="http://www.w3.org/2000/svg" viewBox="0 0 383.36 327.19"><g id="_图层_1-2"><g><path d="M0,233.22c.68-1.46,1.29-2.95,2.05-4.37,3.27-6.12,8.51-9.56,15.29-10.28,4.77-.5,9.62-.33,14.44-.37,5.53-.05,11.07-.01,16.69-.01-.06-.21-.08-.41-.18-.56-2.55-4.49-3.56-9.36-3.56-14.48,0-58.97,0-117.93,.03-176.9,0-10.92,4.73-18.98,14.8-23.64,1.66-.77,3.3-1.58,4.99-2.27,.62-.26,1.37-.31,2.06-.31,32.69-.01,65.37-.01,98.06-.01C214.42,.02,264.18,.02,313.94,0c2.24,0,4.35,.2,6.5,1.07,5.09,2.06,9.77,4.6,13.16,9.09,2.78,3.69,4.18,7.91,4.67,12.44,.24,2.23,.28,4.48,.28,6.73,.01,57.22-.01,114.43,.05,171.65,0,5.97-.65,11.69-3.78,16.91-.03,.06,0,.16,.01,.34,.44,0,.89,0,1.33,0,9.08,0,18.15-.02,27.23,.03,3.88,.02,7.6,.87,10.96,2.89,5.37,3.23,8.31,8.18,8.59,14.26,.39,8.47,.15,16.97,.18,25.46,0,.29,0,.58,0,.87,.08,14.45,.14,28.89,.26,43.34,.05,5.77-1.31,11.05-5.2,15.46-3.78,4.29-8.63,6.45-14.29,6.61-4.95,.14-9.91-.02-14.86-.02-105.14,0-210.28,0-315.42,0-4.04,0-8.08,.04-12.11,.06-9.98,.05-16.94-4.48-20.81-13.71-.18-.44-.45-.85-.68-1.27,0-26.32,0-52.64,0-78.96Zm191.51,80.73c56.63,0,113.26,0,169.9,0,.58,0,1.17,0,1.75-.02,4.78-.2,7.04-2.5,7.14-7.28,.02-.92,.05-1.83,.05-2.75,0-20.91,0-41.81,0-62.72,0-1.04,0-2.08-.06-3.12-.19-3.86-1.81-6-5.05-6.57-1.06-.19-2.15-.28-3.22-.28-113.6-.01-227.2-.01-340.79,0-1.03,0-2.08,.1-3.1,.28-2.85,.49-4.46,2.16-4.89,5.05-.16,1.07-.25,2.15-.25,3.23-.01,21.82-.01,43.64-.01,65.47,0,.5,0,1,.02,1.5,.18,4.49,1.84,6.39,6.26,7.09,.82,.13,1.66,.12,2.49,.12,56.59,0,113.18,0,169.77,0Zm.29-96.97c39.39,0,78.78,0,118.17-.01,1.49,0,3-.05,4.48-.25,5.03-.7,8.73-3.2,10.23-8.22,.56-1.88,.85-3.92,.85-5.89,.04-57.92,.04-115.84,.03-173.77,0-1.58-.09-3.16-.24-4.73-.54-5.39-3.82-9.27-9.1-10.59-1.76-.44-3.61-.67-5.42-.67-78.94-.03-157.89-.03-236.83-.02-1.62,0-3.24,.09-4.85,.24-5.47,.53-9.39,3.83-10.67,9.15-.46,1.92-.69,3.94-.7,5.92-.04,57.26-.03,114.51-.02,171.77,0,1.87,.09,3.74,.25,5.61,.47,5.66,3.82,9.64,9.23,10.86,1.65,.37,3.37,.58,5.06,.58,39.85,.03,79.69,.02,119.54,.02Z"/><path d="M64.56,242.98c8.37,0,16.73,0,25.1,0,3.65,0,6.26,1.99,6.82,5.14,.7,3.88-1.74,7.12-5.69,7.56-.66,.07-1.33,.09-1.99,.09-9.23,0-18.47,0-27.7,0-4.16,0-8.32,.1-12.48,.1-3.04,0-6.07-.05-9.11-.11-4.13-.09-6.97-2.64-7-6.24-.04-3.8,2.84-6.53,6.96-6.54,8.37-.02,16.73,0,25.1,0Z"/><path d="M325.44,256.45c-2.53,0-5.09,.23-7.59-.06-3.16-.37-5.12-3.21-5.03-6.69,.08-2.92,2.38-5.63,5.37-5.73,4.98-.18,9.97-.18,14.95,.02,3.18,.13,5.27,2.79,5.34,6.14,.07,3.11-1.95,5.92-4.97,6.25-2.67,.3-5.39,.06-8.09,.06,0,0,0,0,0,.01Z"/><path d="M304.09,106.97c-.5,11.47-.97,22.94-1.5,34.41-.35,7.49-.99,14.95-2.47,22.31-2.35,11.69-9.69,18.79-20.87,21.97-3.6,1.02-7.46,1.21-11.22,1.53-7.59,.66-15.18,1.2-22.78,1.69-5.89,.38-11.8,.66-17.7,.9-7.86,.31-15.72,.53-23.58,.79-3.62,.12-7.23,.38-10.85,.33-4.2-.05-8.39-.38-12.59-.56-7.27-.31-14.55-.59-21.82-.91-13.01-.57-26.02-1.12-39.03-1.77-5.57-.28-11.17-.73-16.51-2.35-10.89-3.31-17.4-10.94-19.86-21.85-1.12-4.96-1.48-10.13-1.82-15.22-.7-10.54-1.34-21.09-1.67-31.65-.23-7.36-.11-14.74,.21-22.09,.49-11.18,1.13-22.35,2.04-33.5,.38-4.61,1.09-9.33,2.58-13.67,3.33-9.7,10.65-15.47,20.4-17.86,4.85-1.19,9.94-1.53,14.95-1.84,14.57-.9,29.15-1.79,43.74-2.3,12.27-.43,24.55-.53,36.82-.37,11.6,.16,23.19,.79,34.78,1.34,10.72,.52,21.44,1.16,32.15,1.85,4.34,.28,8.77,.11,12.97,1.54,11.06,3.76,17.72,11.59,19.99,22.88,1.14,5.68,1.45,11.56,1.84,17.36,.62,9.25,1.02,18.52,1.44,27.79,.14,3.08,.02,6.16,.02,9.24,.11,0,.22,0,.33,.01ZM191.93,36.9v.14c-3.96,0-7.91-.07-11.87,.01-8.9,.18-17.81,.26-26.7,.71-13.83,.71-27.66,1.64-41.47,2.58-10.01,.68-16.71,7.54-17.4,17.55-.68,9.88-1.42,19.75-2.1,29.63-.7,10.26-.78,20.53-.54,30.82,.31,13.78,1.36,27.51,2.86,41.2,.64,5.89,3.71,10.22,8.94,12.99,3.74,1.98,7.85,2.42,11.95,2.67,7.89,.48,15.79,.83,23.69,1.22,13.04,.64,26.09,1.27,39.14,1.88,5.36,.25,10.73,.76,16.08,.6,10.27-.32,20.52-1.04,30.78-1.59,7.14-.38,14.29-.75,21.43-1.14,8.56-.47,17.11-1.03,25.67-1.39,7.39-.32,14.16-5.53,15.94-12.72,.53-2.12,.65-4.35,.85-6.54,.65-7.29,1.46-14.58,1.83-21.89,.37-7.43,.38-14.89,.4-22.33,.01-4.66-.19-9.32-.39-13.97-.35-7.98-.77-15.96-1.19-23.93-.31-5.78-.48-11.57-1.04-17.32-.85-8.73-7.01-14.71-15.71-15.52-4.47-.42-8.96-.79-13.44-1.05-12.46-.73-24.91-1.55-37.38-2.05-10.1-.4-20.22-.39-30.34-.56Z"/><path d="M290.92,210.74c-2.57,0-5.17,.23-7.71-.06-3.26-.37-5.22-3.2-5.11-6.74,.09-2.96,2.41-5.6,5.54-5.71,4.9-.18,9.81-.18,14.7,.03,3.27,.14,5.39,2.82,5.43,6.19,.03,3.19-2.02,5.77-5.12,6.27-1.26,.21-2.56,.2-3.85,.24-1.29,.04-2.58,0-3.87,0,0-.07,0-.15,0-.22Z"/></g></g></svg>