<svg width="31" height="30" viewBox="0 0 31 30" fill="none" xmlns="http://www.w3.org/2000/svg">
<path d="M0.99 30V29.55L1.89 29.19C2.49 28.98 2.88 28.695 3.06 28.335C3.27 27.975 3.375 27.51 3.375 26.94V3.405C3.375 2.805 3.27 2.325 3.06 1.965C2.88 1.605 2.49 1.32 1.89 1.11L0.99 0.749998V0.299999H12.42V0.749998L11.655 1.065C11.085 1.275 10.695 1.56 10.485 1.92C10.275 2.25 10.17 2.715 10.17 3.315V14.25H20.925V3.315C20.925 2.715 20.82 2.25 20.61 1.92C20.43 1.56 20.04 1.275 19.44 1.065L18.63 0.749998V0.299999H30.105V0.749998L29.205 1.11C28.635 1.32 28.245 1.605 28.035 1.965C27.825 2.325 27.72 2.805 27.72 3.405V26.94C27.72 27.51 27.825 27.975 28.035 28.335C28.245 28.695 28.635 28.98 29.205 29.19L30.105 29.55V30H18.63V29.55L19.44 29.28C20.04 29.04 20.43 28.755 20.61 28.425C20.82 28.065 20.925 27.585 20.925 26.985V15.15H10.17V26.985C10.17 28.095 10.665 28.86 11.655 29.28L12.42 29.55V30H0.99Z" fill="#404040"/>
</svg>
