<?xml version="1.0" encoding="UTF-8"?><svg id="_图层_2" xmlns="http://www.w3.org/2000/svg" viewBox="0 0 1113.83 1278.6"><g id="_图层_1-2"><path d="M153.69,1278.6c-6.26-.62-12.53-1.17-18.78-1.87-68.23-7.62-117.35-52.28-131.05-119.27-7.94-38.86-3.04-76.74,9.38-113.91,8.3-24.85,19.76-48.19,34.33-70.02,109.1-163.5,218.16-327.01,327.13-490.6,1.62-2.43,2.69-5.76,2.68-8.66-.57-102.4-1.23-204.8-2.09-307.2-.16-18.96-1.37-37.88-6.39-56.35-6.81-25.04-20.53-45.99-38.03-64.67-13.21-14.09-26.71-27.9-40.08-41.85-1.1-1.15-2.13-2.35-3.8-4.2H808.4c-1.32,1.55-2.37,2.86-3.49,4.1-16.08,17.78-32.77,35.03-48.09,53.44-19.96,23.97-30.78,52.11-31.48,83.33-.69,30.94-.1,61.91,.38,92.86,.57,36.96,1.62,73.91,2.47,110.86,1.02,44.28,2.01,88.55,3.18,132.83,.06,2.27,1.39,4.72,2.69,6.71,86.33,132.48,172.73,264.92,259.11,397.36,17.62,27.02,35.12,54.12,52.91,81.02,9.81,14.83,20.69,28.97,30.07,44.06,16.42,26.44,28.19,54.91,34.11,85.6,1.5,7.79,2.4,15.7,3.58,23.56v24.98c-.32,1.78-.75,3.54-.96,5.34-3.3,28.78-13.32,54.78-32.16,77.03-24.4,28.81-56.25,44.41-92.71,51.5-8.93,1.73-18.01,2.71-27.03,4.03H452.42c-1.81-.17-3.62-.5-5.43-.5-92.48-.13-184.95-.24-277.43-.29-3.96,0-7.92,.52-11.87,.79h-4Zm746.17-462.11c-5.11,5.66-11.25,8.25-18.33,8.27-37.96,.06-75.92,.21-113.88-.06-14.79-.11-24.23-12-21.55-25.96,1.92-9.96,10.82-16.72,22.37-16.74,34.3-.05,68.6-.02,102.9-.02h5.98c-28.02-42.98-55.48-85.1-83.14-127.53-5.9,4.93-12.41,5.64-19.18,5.56-8.32-.1-16.65-.02-24.98-.02-28.14,0-56.28,.09-84.42-.03-17.32-.08-27.87-16.07-20.47-30.91,4.36-8.75,12.09-11.86,21.4-11.87,32.47-.01,64.94,0,97.4,0h5.79c-1.48-2.36-2.34-3.77-3.23-5.15-24.98-38.3-50-76.57-74.88-114.94-1.43-2.21-2.31-5.14-2.43-7.79-.55-12.64-.73-25.3-1.08-37.95-.03-1.25-.31-2.5-.5-3.95-2.39,0-4.38,0-6.37,0-33.47,0-66.93,0-100.4,0-2,0-4.01,.05-5.99-.14-15.99-1.49-24.64-19.68-15.63-32.87,5-7.33,12.27-9.51,20.77-9.48,33.63,.11,67.27,.04,100.9,.04h6.12c-1.28-54.49-2.55-108.33-3.82-162.49-2.45,0-4.25,0-6.06,0-33.13,0-66.27,.1-99.4-.04-16.89-.07-27.16-16.35-19.68-30.97,4.57-8.93,12.57-11.7,22.01-11.7,31.97,.02,63.94,0,95.91,0,1.94,0,3.87,0,6.18,0,0-4.04-.05-7.51,0-10.97,.3-18.63,.05-37.28,1.07-55.87,1.73-31.53,12.05-60.39,29.12-86.89,.65-1,1.17-2.09,1.81-3.24H383.24c.86,1.33,1.38,2.13,1.91,2.93,8.81,13.37,16.17,27.46,21.41,42.63,8.86,25.66,11.01,52.25,11.21,79.13,.8,106.4,1.65,212.8,2.33,319.21,.02,3.06-1.07,6.58-2.76,9.13-111.16,166.92-222.42,333.78-333.74,500.6-13,19.48-23.26,40.26-30.52,62.47-9.7,29.67-13.93,59.97-7.17,90.88,9.21,42.17,34.08,70.12,76.29,81.56,16.58,4.49,33.56,3.99,50.56,4,256.75,.07,513.5,.27,770.24,.51,19.08,.02,37.82-1.98,55.98-8.08,24.62-8.27,44.9-22.27,58.19-45.1,15.21-26.13,16.62-54.27,11.01-83.11-8.53-43.8-31.97-80.05-58.39-113.74-4.24,1.21-8.15,2.41-12.11,3.42-1.43,.36-2.97,.36-4.46,.36-36.8,.02-73.59,.04-110.39,0-12.78-.01-22.33-7.49-23.67-18.34-1.66-13.49,7.98-24.31,22.01-24.35,32.47-.09,64.94-.03,97.4-.03h6.3c-28.59-43.83-56.69-86.92-85.01-130.34Z"/></g></svg>