<svg width="62" height="62" viewBox="0 0 62 62" fill="none" xmlns="http://www.w3.org/2000/svg">
<rect x="1" y="1" width="60" height="60" rx="11" fill="#B1FD35" stroke="#53585F" stroke-width="2"/>
<path d="M8.79688 26V11.7227H11.8242V23.5H17.6152V26H8.79688ZM22.8496 15.082V26H19.8711V15.082H22.8496ZM21.3652 10.8047C21.8079 10.8047 22.1888 10.9089 22.5078 11.1172C22.8268 11.319 22.9863 11.6999 22.9863 12.2598C22.9863 12.8132 22.8268 13.1973 22.5078 13.4121C22.1888 13.6204 21.8079 13.7246 21.3652 13.7246C20.916 13.7246 20.5319 13.6204 20.2129 13.4121C19.9004 13.1973 19.7441 12.8132 19.7441 12.2598C19.7441 11.6999 19.9004 11.319 20.2129 11.1172C20.5319 10.9089 20.916 10.8047 21.3652 10.8047ZM32.2637 26L28.8262 14.7988H28.7383C28.7513 15.0658 28.7708 15.4694 28.7969 16.0098C28.8294 16.5436 28.8587 17.1133 28.8848 17.7188C28.9108 18.3242 28.9238 18.8711 28.9238 19.3594V26H26.2188V11.7227H30.3398L33.7188 22.6406H33.7773L37.3613 11.7227H41.4824V26H38.6602V19.2422C38.6602 18.793 38.6667 18.2754 38.6797 17.6895C38.6992 17.1035 38.722 16.5469 38.748 16.0195C38.7741 15.4857 38.7936 15.0853 38.8066 14.8184H38.7188L35.0371 26H32.2637ZM49.3535 14.877C50.3626 14.877 51.2318 15.0723 51.9609 15.4629C52.6901 15.847 53.2533 16.4069 53.6504 17.1426C54.0475 17.8783 54.2461 18.7767 54.2461 19.8379V21.2832H47.2051C47.2376 22.123 47.4883 22.7839 47.957 23.2656C48.4323 23.7409 49.0898 23.9785 49.9297 23.9785C50.6263 23.9785 51.2643 23.9069 51.8438 23.7637C52.4232 23.6204 53.0189 23.4056 53.6309 23.1191V25.4238C53.0905 25.6908 52.5241 25.8861 51.9316 26.0098C51.3457 26.1335 50.6328 26.1953 49.793 26.1953C48.6992 26.1953 47.7292 25.9935 46.8828 25.5898C46.043 25.1862 45.3822 24.571 44.9004 23.7441C44.4251 22.9173 44.1875 21.8757 44.1875 20.6191C44.1875 19.3431 44.4023 18.2819 44.832 17.4355C45.2682 16.5827 45.8737 15.9447 46.6484 15.5215C47.4232 15.0918 48.3249 14.877 49.3535 14.877ZM49.373 16.9961C48.7936 16.9961 48.3118 17.1816 47.9277 17.5527C47.5501 17.9238 47.332 18.5065 47.2734 19.3008H51.4531C51.4466 18.8581 51.3652 18.4642 51.209 18.1191C51.0592 17.7741 50.8314 17.5007 50.5254 17.2988C50.2259 17.097 49.8418 16.9961 49.373 16.9961Z" fill="#53585F"/>
<path d="M14.7969 51V36.7227H17.8242V48.5H23.6152V51H14.7969ZM30.3438 39.8574C31.8086 39.8574 32.9316 40.1764 33.7129 40.8145C34.4941 41.4525 34.8848 42.4225 34.8848 43.7246V51H32.8047L32.2285 49.5156H32.1504C31.8379 49.9062 31.5189 50.2253 31.1934 50.4727C30.8678 50.7201 30.4935 50.9023 30.0703 51.0195C29.6471 51.1367 29.1328 51.1953 28.5273 51.1953C27.8828 51.1953 27.3034 51.0716 26.7891 50.8242C26.2812 50.5768 25.8809 50.1992 25.5879 49.6914C25.2949 49.1771 25.1484 48.526 25.1484 47.7383C25.1484 46.5794 25.5553 45.7266 26.3691 45.1797C27.1829 44.6263 28.4036 44.3203 30.0312 44.2617L31.9258 44.2031V43.7246C31.9258 43.1517 31.776 42.7318 31.4766 42.4648C31.1771 42.1979 30.7604 42.0645 30.2266 42.0645C29.6992 42.0645 29.1816 42.1393 28.6738 42.2891C28.166 42.4388 27.6582 42.6276 27.1504 42.8555L26.1641 40.8438C26.7435 40.5378 27.3913 40.2969 28.1074 40.1211C28.8301 39.9453 29.5755 39.8574 30.3438 39.8574ZM31.9258 45.9414L30.7734 45.9805C29.8099 46.0065 29.1393 46.179 28.7617 46.498C28.3906 46.8171 28.2051 47.237 28.2051 47.7578C28.2051 48.2135 28.3385 48.5391 28.6055 48.7344C28.8724 48.9232 29.2207 49.0176 29.6504 49.0176C30.2884 49.0176 30.8255 48.8288 31.2617 48.4512C31.7044 48.0736 31.9258 47.5365 31.9258 46.8398V45.9414ZM40.9395 35.8047V39.3398C40.9395 39.75 40.9264 40.1569 40.9004 40.5605C40.8809 40.9642 40.8548 41.2767 40.8223 41.498H40.9395C41.2259 41.0488 41.6165 40.668 42.1113 40.3555C42.6061 40.0365 43.2474 39.877 44.0352 39.877C45.2591 39.877 46.252 40.3555 47.0137 41.3125C47.7754 42.2695 48.1562 43.6725 48.1562 45.5215C48.1562 46.765 47.9805 47.8099 47.6289 48.6562C47.2773 49.4961 46.7858 50.1309 46.1543 50.5605C45.5228 50.9837 44.7904 51.1953 43.957 51.1953C43.1562 51.1953 42.5247 51.0521 42.0625 50.7656C41.6003 50.4792 41.2259 50.1569 40.9395 49.7988H40.7344L40.2363 51H37.9609V35.8047H40.9395ZM43.0781 42.2598C42.5573 42.2598 42.1439 42.3672 41.8379 42.582C41.5319 42.7969 41.3073 43.1191 41.1641 43.5488C41.0273 43.9785 40.9525 44.5221 40.9395 45.1797V45.502C40.9395 46.5632 41.0957 47.377 41.4082 47.9434C41.7207 48.5033 42.2904 48.7832 43.1172 48.7832C43.7292 48.7832 44.2142 48.5 44.5723 47.9336C44.9368 47.3672 45.1191 46.5501 45.1191 45.4824C45.1191 44.4147 44.9368 43.6107 44.5723 43.0703C44.2077 42.5299 43.7096 42.2598 43.0781 42.2598Z" fill="#53585F"/>
</svg>
