<svg width="221" height="251" viewBox="0 0 221 251" fill="none" xmlns="http://www.w3.org/2000/svg">
<path d="M213.885 87.4579C211.64 86.2829 209.071 85.7381 205.789 85.7381C202.572 85.7381 198.917 86.2578 194.075 87.0895C191.803 87.4812 189.627 88.2044 187.586 89.1099C187.758 87.9795 187.857 86.7444 187.836 85.3193C187.78 81.3718 186.833 77.0188 185.3 73.6704C183.449 69.6123 179.252 66.8996 176.052 65.3351C173.16 63.9314 168.928 63.6367 165.887 63.6367C164.416 63.6367 162.931 63.7084 161.707 63.8363C158.716 64.1427 154.603 64.8485 150.255 65.5949C146.376 66.2599 142.362 66.9483 139.476 67.2798C133.604 67.9584 110.688 68.2299 110.545 68.2299C110.314 68.2299 87.3935 67.9584 81.5204 67.2798C78.634 66.9483 74.6189 66.26 70.7335 65.593C66.3875 64.8485 62.2834 64.1446 59.3079 63.8383C58.0747 63.7084 56.5861 63.6347 55.1148 63.6347C52.0697 63.6347 47.8357 63.9294 44.9495 65.3351C41.7495 66.8978 37.5485 69.6104 35.7059 73.6624C34.1127 77.1427 33.1602 81.5207 33.1602 85.3734C33.1602 86.7908 33.2512 87.989 33.3848 89.1C31.354 88.2023 29.1878 87.4791 26.9209 87.0913C22.0735 86.2575 18.4227 85.7398 15.2069 85.7398C11.9314 85.7398 9.36247 86.2847 7.11699 87.4577C4.02733 89.0689 0.142175 94.4394 0.0123328 98.3874C-0.237396 104.931 3.35364 107.341 6.40831 108.202C10.0303 109.227 16.1807 112.035 17.7546 113.611C19.5937 115.453 22.4956 120.16 23.152 124.213C23.2856 125.029 23.4211 125.938 23.5663 126.925C24.3077 131.92 25.3202 138.76 27.8039 145.218C30.8587 153.149 34.6608 163.008 42.9231 167.574C50.7498 171.909 61.4648 175.126 72.321 176.407C82.1821 177.567 99.1211 177.58 99.2935 177.58H106.528V204.025C76.4081 204.757 47.3506 212.666 47.3506 227.159C47.3506 242.385 79.4281 250.352 111.112 250.352C142.797 250.352 174.874 242.385 174.874 227.159C174.874 212.703 145.963 204.794 115.919 204.032V177.578H121.692C121.86 177.578 138.809 177.564 148.668 176.405C159.523 175.123 170.239 171.907 178.074 167.571C186.331 163.005 190.133 153.142 193.187 145.216C195.671 138.769 196.682 131.928 197.417 126.94C197.564 125.951 197.7 125.034 197.833 124.216C198.494 120.16 201.397 115.454 203.234 113.614C204.808 112.036 210.96 109.229 214.575 108.203C219.006 106.949 221.166 103.652 220.99 98.3886C220.847 94.4197 216.958 89.0626 213.885 87.4574L213.885 87.4579ZM167.448 227.157C167.448 233.58 145.505 242.908 111.12 242.908C76.731 242.908 54.7872 233.58 54.7872 227.157C54.7872 221.028 74.8096 212.27 106.536 211.479V215.888C96.0339 216.425 96.0146 218.8 96.0146 220.156C96.0146 221.683 96.0146 224.526 111.228 224.526C126.442 224.526 126.442 221.685 126.442 220.156C126.442 218.804 126.423 216.425 115.925 215.888V211.483C147.52 212.305 167.45 221.042 167.45 227.157L167.448 227.157ZM42.462 76.7565C43.1667 75.1996 45.3155 73.4313 48.1979 72.0256C49.1446 71.5661 51.456 71.0717 55.1147 71.0717C56.3169 71.0717 57.5597 71.1299 58.5373 71.2365C61.2746 71.5196 65.4447 72.2311 69.4807 72.9233C73.4628 73.6077 77.5825 74.3135 80.6739 74.6722C86.9227 75.3915 109.503 75.6552 110.546 75.6668C111.504 75.6552 134.076 75.3895 140.33 74.6722C143.415 74.3135 147.535 73.6077 151.511 72.9233C155.549 72.2331 159.725 71.5176 162.48 71.2326C163.447 71.1318 164.688 71.0717 165.891 71.0717C169.547 71.0717 171.863 71.5661 172.803 72.0218C175.69 73.4333 177.835 75.2035 178.549 76.7604C179.643 79.1452 180.369 82.5439 180.411 85.4273C180.475 89.464 179.504 90.8365 177.153 94.1601C173.812 98.8774 168.767 106.013 163.963 125.238C159.322 143.824 150.27 146.962 131.73 146.962C128.736 146.962 125.574 146.884 122.258 146.801C118.532 146.71 114.612 146.613 110.506 146.613C104.26 146.613 98.5438 146.832 93.5048 147.022C92.5117 147.061 91.534 147.098 90.568 147.132C87.4455 147.067 84.9095 146.964 83.0857 146.832L81.3318 146.71C74.1186 146.208 66.6616 145.692 63.82 141.94C59.7934 136.614 57.4954 129.112 56.2797 123.755C55.7376 121.363 54.7542 117.834 53.5598 114.166C50.083 101.128 46.2653 96.8398 43.555 93.8131C41.4623 91.4787 40.597 90.5112 40.597 85.3711C40.5912 82.6198 41.3229 79.2421 42.4612 76.7568L42.462 76.7565ZM212.56 101.043C209.848 101.811 201.365 104.971 197.987 108.351C195.041 111.302 191.419 117.442 190.505 123.011C190.366 123.87 190.224 124.818 190.075 125.849C189.386 130.497 188.445 136.862 186.262 142.537C183.639 149.339 180.379 157.8 174.486 161.061C167.464 164.945 157.74 167.843 147.804 169.016C138.374 170.125 121.861 170.137 121.694 170.137H99.2946C99.1281 170.137 82.6227 170.125 73.1913 169.016C63.2564 167.843 53.5346 164.945 46.5191 161.061C40.6227 157.8 37.3608 149.341 34.7377 142.537C32.5482 136.853 31.6074 130.481 30.9163 125.832C30.7672 124.806 30.624 123.862 30.4865 123.013C29.5786 117.442 25.9566 111.296 23.0102 108.351C19.6379 104.966 11.1435 101.807 8.43117 101.041C7.64909 100.822 7.35674 100.739 7.43807 98.6621C7.53293 97.5608 9.51332 94.6293 10.5548 94.0573C11.7009 93.4563 13.1799 93.181 15.2125 93.181C17.8898 93.181 21.33 93.6812 25.6703 94.4238C32.4166 95.5851 38.8805 101.031 41.3703 104.192C42.6325 105.796 44.6845 110.935 46.4287 116.244C47.234 119.29 48.0297 122.857 48.7982 127.15C52.9506 150.37 63.6963 154.772 82.0755 154.772C84.6889 154.772 87.5462 154.682 90.4984 154.58C93.406 154.638 96.8017 154.671 100.694 154.671C106.127 154.671 110.453 154.609 110.455 154.609C110.559 154.609 114.89 154.671 120.32 154.671C128.623 154.671 134.727 154.531 138.461 154.26L140.193 154.139C148.647 153.55 158.23 152.885 163.112 146.436C167.959 140.014 170.606 131.454 171.969 125.411C173.529 118.52 177.608 106.774 179.639 104.2C182.134 101.034 188.604 95.5855 195.339 94.426C202.962 93.1134 207.802 92.6713 210.45 94.0557C211.493 94.6374 213.483 97.5748 213.578 98.6528C213.642 100.737 213.348 100.82 212.56 101.043L212.56 101.043Z" fill="black"/>
<path d="M51.3588 49.2585C53.5928 52.2385 60.2366 57.6444 65.5602 59.3176L67.1089 59.8178C71.9098 61.3864 79.1654 63.7596 90.5811 64.254C102.134 64.7561 109.409 64.7096 110.428 64.698C110.637 64.6999 111.101 64.7038 111.812 64.7038C114.588 64.7038 121.067 64.6534 130.266 64.254C141.678 63.7596 148.93 61.3941 153.729 59.8236L155.289 59.3176C160.619 57.6424 167.259 52.2386 169.487 49.2644C171.938 46.0071 172.336 41.8538 172.644 38.6608C173.087 33.9959 171.628 25.2265 171.328 23.5086C170.606 19.4331 168.616 13.2266 167.553 10.2003C165.799 5.2075 161.369 0.187866 155.428 0.187866H155.367C151.481 0.213072 112.278 0.213072 110.427 0.213072C108.544 0.213072 69.3692 0.213072 65.4784 0.187866H65.4165C59.4655 0.187866 55.042 5.21147 53.2941 10.1964C52.2332 13.2016 50.2432 19.3849 49.5288 23.4972C49.343 24.5344 47.7304 33.7672 48.2105 38.7134C48.4989 41.7769 48.8919 45.9706 51.3582 49.259L51.3588 49.2585ZM56.8449 24.7956C57.4353 21.4103 59.2337 15.6945 60.3023 12.6717C61.038 10.5757 63.1074 7.62872 65.4167 7.62872H65.4342C69.2865 7.65004 107.762 7.65392 110.36 7.65392H110.495C113.093 7.65392 151.56 7.65392 155.409 7.62872H155.429C157.866 7.62872 159.864 10.7232 160.549 12.6737C161.47 15.2911 163.379 21.1931 164.016 24.7917C164.612 28.2293 165.547 34.8701 165.238 38.1079C165.019 40.3783 164.746 43.2034 163.553 44.7933C162.169 46.641 156.79 51.0498 153.065 52.2212L151.427 52.7486C147.015 54.1931 140.342 56.3704 129.949 56.8202C118.467 57.3185 111.12 57.2642 110.454 57.2603H110.404C109.732 57.2662 102.38 57.3185 90.9059 56.8202C80.5007 56.3704 73.8297 54.1872 69.4121 52.7428L67.7879 52.2193C64.0691 51.0482 58.6875 46.6412 57.2994 44.7893C56.0914 43.1801 55.8127 40.1922 55.6017 37.9451C55.3132 34.998 56.1844 28.4757 56.8445 24.7957L56.8449 24.7956Z" fill="black"/>
</svg>
